<?xml version="1.0" encoding="UTF-8"?>
<svg width="1200pt" height="1200pt" version="1.1" viewBox="0 0 1200 1200" xmlns="http://www.w3.org/2000/svg">
 <path fill="#D4B86A" d="m261.25 836.86c-68.965 81.469-137.89 162.95-206.89 244.41-18.238 21.516-18.707 46.285-0.98438 63.742 17.605 17.34 41.387 17.062 62.762-0.79297 59.113-49.262 118.18-98.531 177.28-147.8 26.93-22.488 53.93-44.953 81.961-68.316-34.57-34.859-68.461-69.086-103.01-103.91-4.2734 4.8828-7.7539 8.7227-11.113 12.672zm484.96 319.29c49.402-55.402 47.113-151.02 2.8086-257.68 0.91016-1.6562 1.9453-3.3359 3.2539-5.0742 100.22-134.26 199.85-268.91 299.65-403.46l13.715 13.738c22.309 22.297 58.453 22.285 80.723-0.011718l7.4141-7.3906c22.273-22.285 22.297-58.414 0.011719-80.723l-369.33-369.33c-22.309-22.285-58.43-22.273-80.734 0.011718l-7.3906 7.3789c-22.285 22.285-22.285 58.453 0 80.734l18.984 19.02c-136.4 99.758-272.76 199.56-409.44 298.93-0.13281 0.12109-0.33594 0.19141-0.50391 0.27734-109.36-46.332-209.54-50.914-263.32 2.8438-6.2188 6.2188-23.344 25.898-2.582 46.668l657.39 657.38c23.016 23.02 41.941 4.0703 49.344-3.3203zm-254.13-588.09c-27.91-22.812-56.207-43.246-84.422-61.188 121.05-98.844 242.06-197.71 363.96-297.25l63.781 63.781c-115.18 98.859-229.3 196.79-343.32 294.66z" fill-rule="evenodd"/>
</svg>
