<?xml version="1.0" encoding="UTF-8"?>
<svg width="1200pt" height="1200pt" version="1.1" viewBox="0 0 1200 1200" xmlns="http://www.w3.org/2000/svg">
 <path fill="#D4B86A" d="m964.54 310.78c-5.7305-14.672-12.574-29.215-20.32-43.172-27.469-49.898-66.258-93.738-112.12-126.73-21.914-15.891-45.234-29.332-69.223-39.902-49.312-22.066-102.01-33.258-156.63-33.258-106.2 0-205.04 42.246-278.29 118.92-63.859 66.328-101.78 153.48-106.77 245.39-0.375 7.0312-0.62891 14.203-0.62891 21.375 0 5.6719 0.12891 11.32 0.38281 17.004 0.98438 21.75 3.8086 43.43 8.3906 64.441 8.4727 64.418 33.402 135.86 74.035 212.24 8.0508 15.422 16.977 31.266 27.273 48.445 27.59 46.055 60.535 93.961 97.953 142.44 9.3281 11.988 18.539 23.625 27.605 34.746 27.18 33.434 55.711 66.211 84.785 97.383 31.441 33.832 51.98 53.473 52.84 54.293l12.418 11.836 12.422-11.836c2.8125-2.6719 69.68-66.621 146.6-162.73 23.766-29.766 44.285-57.023 62.695-83.309 54.234-77.062 95.215-150.74 121.79-218.92 5.7773-14.66 11.133-29.895 15.926-45.281l0.80859-2.7422v-0.09375c7.8984-26.52 13.535-52.242 16.793-76.5 5.7422-27.012 8.6484-54.398 8.6484-81.422 0-49.5-9.2344-97.547-27.387-142.63zm-145.17 14.754 99.77-27.945c2.1641 4.332 4.2266 8.6953 6.1875 13.113l-85.57 57.395c-5.4688-14.914-12.297-29.133-20.387-42.562zm-464.83 439.5c-4.0547-6.9648-7.9375-13.82-11.578-20.457l125.4-84.137c31.262 20.891 67.531 34.727 106.55 39.664l-220.38 64.93zm251.72-98.734c-117.39 0-212.88-95.496-212.88-212.88 0-117.38 95.496-212.87 212.88-212.87 117.39 0 212.88 95.496 212.88 212.87 0 117.39-95.496 212.88-212.88 212.88zm-245.89-249.41-103.58 29.016c0.011719-0.46094 0.027344-0.91406 0.039062-1.375l108.3-51.629c-1.9766 7.8594-3.5586 15.855-4.7617 23.992zm540.53-151.58-103.48 28.984c-23.375-28.035-52.887-50.664-86.32-66.277l108.25-51.594c31.906 24.488 59.703 54.758 81.547 88.887zm-215.36-152.46-281.83 55.547c58.605-42.004 128.58-64.68 202.53-64.68 27.035 0 53.516 3.1289 79.297 9.1328zm-420.61 416.59-0.27344-1.5703c-3.2383-14.688-5.207-29.789-6.5117-44.969l99.312-27.816c0.48047 72.012 31.816 136.67 81.281 181.86l-112.62 75.562c-33.344-66.16-54.012-127.71-61.188-183.06zm474.41 406.95-181.43 98.898c-18.891-20.578-37.859-42.152-56.086-63.895l266.67-72.574c-9.1445 12.117-18.848 24.613-29.156 37.57zm62.789-84.027-325.33 88.531c-2.2812-2.8398-4.5547-5.6445-6.8516-8.5391l425.38-237.83c-23.727 50.105-54.969 102.98-93.199 157.84zm145.79-324.39-0.24609 1.418c-2.7148 20.551-7.4336 42.387-13.84 64.949l-167.48 49.348c54.219-45.691 88.793-113.99 88.793-190.28 0-16.773-1.7188-33.145-4.8984-49l88.418-59.305c11.402 34.711 17.262 71.023 17.262 108.29 0 24.727-2.6953 49.816-8.0039 74.578z"/>
</svg>
